# xmcd
#
# Track frame offsets:
#	150
#	14027
#	25850
#	40680
#	52322
#	65310
#	78450
#	93667
#	107985
#	121760
#	134315
#	146717
#	161092
#	171692
#	184445
#	198175
#	211060
#	231110
#	243677
#
# Disc length: 3438
#
# Revision: 2
# Processed by: cddbd v1.5.1PL0 Copyright (c) Steve Scherf et al.
# Submitted via: audiograbber 1.83.01
# Normalized: r1:DSETVAR1
#
DISCID=1d0d6c13
DTITLE=Various Artist - NuTech  A9
DYEAR=1900
DGENRE=various
TTITLE0=Gatlin Brothers - Broken Lady
TTITLE1=Charlie Rich - She Called Me Baby
TTITLE2=Olivia Newton-John - Let Me Be There
TTITLE3=D. Houston and B. Mandrell - After Closing Time
TTITLE4=Tammy Wynette - Another Lonely Song
TTITLE5=Blanchard and Morgan - You've Got Your Troubles
TTITLE6=George Jones - The Ceremony
TTITLE7=Tammy Wynette - Kids (Say The DarndestThings)
TTITLE8=Mel Tillis and Bryce - Don't Let Go
TTITLE9=Sammi Smith - Help Me Make It Through The Night
TTITLE10=Roy Orbison - Dream Baby (How Long Must I Dream)
TTITLE11=Billy Swan - I Can Help
TTITLE12=Crystal Gayle - Don't It Make My Brown Eyes Blue
TTITLE13=Joe Stampley - Roll On Big Mama
TTITLE14=Freddie Fender - Wasted Days And Wasted Nights
TTITLE15=Dolly Parton - Here You Come Again
TTITLE16=Johnny Cash - Sunday Mornin' Comin' Down
TTITLE17=Tammy Wynette - Good Lovin' (Makes It Right)
TTITLE18=Brown and Cornelious - I Don't Want To Have To Marry You
EXTD=
EXTT0=
EXTT1=
EXTT2=
EXTT3=
EXTT4=
EXTT5=
EXTT6=
EXTT7=
EXTT8=
EXTT9=
EXTT10=
EXTT11=
EXTT12=
EXTT13=
EXTT14=
EXTT15=
EXTT16=
EXTT17=
EXTT18=
PLAYORDER=
